<?xml version="1.0" encoding="utf-8"?>
<!-- Generator: Adobe Illustrator 15.1.0, SVG Export Plug-In . SVG Version: 6.00 Build 0)  -->
<!DOCTYPE svg PUBLIC "-//W3C//DTD SVG 1.1//EN" "http://www.w3.org/Graphics/SVG/1.1/DTD/svg11.dtd">
<svg version="1.1" id="Layer_1" xmlns="http://www.w3.org/2000/svg" xmlns:xlink="http://www.w3.org/1999/xlink" x="0px" y="0px"
	 width="100px" height="76.133px" viewBox="-12.058 5.33 100 76.133" enable-background="new -12.058 5.33 100 76.133"
	 xml:space="preserve">
<path d="M87.942,11.914v69.549h-100V11.914H3.576V5.33h9.878v6.583H87.942z M82.865,16.991H-6.986v20.849h27.438
	c4.117-5.212,10.424-8.504,17.56-8.504c6.992,0,13.305,3.292,17.421,8.504h27.433V16.991z M38.011,33.039
	c-10.292,0-18.658,8.369-18.658,18.658s8.366,18.655,18.658,18.655c10.149,0,18.52-8.366,18.52-18.655S48.16,33.039,38.011,33.039z
	 M38.011,40.996c-5.899,0-10.838,4.801-10.838,10.7s4.939,10.7,10.838,10.7s10.701-4.801,10.701-10.7S43.91,40.996,38.011,40.996z"
	/>
</svg>
